# xmcd
#
# Track frame offsets:
#	150
#	11857
#	24195
#	37107
#	50485
#	61682
#	81245
#	94912
#	106254
#	116325
#	132235
#	144270
#
# Disc length: 2006 seconds
#
# Revision: 0
# Processed by: cddbd v1.4PL0 Copyright (c) Steve Scherf et al.
# Submitted via: EasyCDDAExtractor 5.0.4.1
#
DISCID=9607d40c
DTITLE=Gordons, The - End Of A Long Hard Day
DYEAR=1900
DGENRE=Country
TTITLE0=Sawdust
TTITLE1=Johnny Bring The Jug Around The Hill
TTITLE2=Thy Burdens Are Greater Than Mine
TTITLE3=Kentucky In The Morning
TTITLE4=End Of A long Hard Day
TTITLE5=The Old School
TTITLE6=Woke Up With Tears In My Eyes
TTITLE7=Little Country Church In The Pines
TTITLE8=Big Tilda
TTITLE9=Susannah
TTITLE10=High Ballin'
TTITLE11=Thank You Lord
EXTD=
EXTT0=
EXTT1=
EXTT2=
EXTT3=
EXTT4=
EXTT5=
EXTT6=
EXTT7=
EXTT8=
EXTT9=
EXTT10=
EXTT11=
PLAYORDER=
